HIERARCHY
ROOT root     
{
	OFFSET 0.0000 0.0000 0.0000
	CHANNELS 6 Xposition Yposition Zposition Zrotation Yrotation Xrotation
	JOINT pelvis   
	{
		OFFSET 0.0000 0.0000 0.0000
		CHANNELS 3 Zrotation Yrotation Xrotation
		JOINT thorax   
		{
			OFFSET 0.0000 23.0750 -5.0000
			CHANNELS 3 Zrotation Yrotation Xrotation
			JOINT rclavicle
			{
				OFFSET 0.0000 28.0009 0.0000
				CHANNELS 3 Zrotation Yrotation Xrotation
				JOINT rhumerus 
				{
					OFFSET -18.5725 5.5939 0.0000
					CHANNELS 3 Zrotation Yrotation Xrotation
					JOINT rradius  
					{
						OFFSET -24.8459 0.0000 0.0000
						CHANNELS 3 Zrotation Yrotation Xrotation
						JOINT rhand    
						{
							OFFSET -24.5477 0.0000 0.0000
							CHANNELS 3 Zrotation Yrotation Xrotation
							End Site
							{
								OFFSET -8.1826 0.0000 0.0000
							}
						}
					}
				}
			}
			JOINT lclavicle
			{
				OFFSET 0.0000 28.0009 0.0000
				CHANNELS 3 Zrotation Yrotation Xrotation
				JOINT lhumerus 
				{
					OFFSET 18.5725 5.5939 0.0000
					CHANNELS 3 Zrotation Yrotation Xrotation
					JOINT lradius  
					{
						OFFSET 24.8459 0.0000 0.0000
						CHANNELS 3 Zrotation Yrotation Xrotation
						JOINT lhand    
						{
							OFFSET 24.5477 0.0000 0.0000
							CHANNELS 3 Zrotation Yrotation Xrotation
							End Site
							{
								OFFSET 8.1826 0.0000 0.0000
							}
						}
					}
				}
			}
			JOINT head     
			{
				OFFSET 0.0000 35.2030 0.0000
				CHANNELS 3 Zrotation Yrotation Xrotation
				End Site
				{
					OFFSET 0.0000 11.7343 0.0000
				}
			}
		}
		JOINT rfemur   
		{
			OFFSET -8.2817 0.0000 0.0000
			CHANNELS 3 Zrotation Yrotation Xrotation
			JOINT rtibia   
			{
				OFFSET 0.0000 -43.3627 0.0000
				CHANNELS 3 Zrotation Yrotation Xrotation
				JOINT rfoot    
				{
					OFFSET 0.0000 -38.2947 0.0000
					CHANNELS 3 Zrotation Yrotation Xrotation
					JOINT rtoes    
					{
						OFFSET 0.0000 0.0000 16.6054
						CHANNELS 3 Zrotation Yrotation Xrotation
						End Site
						{
							OFFSET 0.0000 0.0000 5.5351
						}
					}
				}
			}
		}
		JOINT lfemur   
		{
			OFFSET 8.2817 0.0000 0.0000
			CHANNELS 3 Zrotation Yrotation Xrotation
			JOINT ltibia   
			{
				OFFSET 0.0000 -43.3627 0.0000
				CHANNELS 3 Zrotation Yrotation Xrotation
				JOINT lfoot    
				{
					OFFSET 0.0000 -38.2947 0.0000
					CHANNELS 3 Zrotation Yrotation Xrotation
					JOINT ltoes    
					{
						OFFSET 0.0000 0.0000 16.6054
						CHANNELS 3 Zrotation Yrotation Xrotation
						End Site
						{
							OFFSET 0.0000 0.0000 5.5351
						}
					}
				}
			}
		}
	}
}
MOTION
Frames: 17
Frame Time: .0333333
-19.217 82.84 -12.836 45.2945 86.0752 64.775 0 -0 0 -10.6499 -2.41277 -9.75534 27.2951 -8.29317 -8.18614e-06 35.9771 14.4978 27.7512 -180 84.8009 -180 4.79753 5.39822 0.226296 -24.4823 14.8039 8.86479e-05 -51.2666 26.0788 4.66075 0 -81.8619 0 10.5863 1.94931 0.180603 15.3578 -3.61671 -4.6736 -3.61236 -4.51471 -0.961207 -0 -0 32.9718 -1.18313e-05 14.8925 21.9763 5.68352 -3.41437e-05 -81.7796 -5.28688 3.83125 -45.4097 -0 -0 29.476 -3.24548e-06 -1.87972 7.57931 -0.248002 -1.19826e-06 -27.1219 
-18.087 82.597 -12.889 45.6154 85.7334 64.9813 0 -0 0 -11.0819 -2.68571 -9.6341 27.4488 -8.27859 -1.7194e-05 36.3791 14.3372 27.4396 -180 84.7305 -180 4.82795 5.44837 0.229894 -24.8055 14.9456 -8.30203e-05 -50.7095 25.3057 4.89032 -1.49511e-06 -81.1767 1.28102e-06 11.0269 1.95819 0.188999 15.7924 -3.5025 -4.63299 -4.31025 -5.14394 -1.67458 -0 -0 35.5084 -0.000151315 15.8872 23.2653 6.41461 -2.01876e-05 -81.9506 -5.423 3.52185 -45.6474 -0 -0 31.9244 -1.49224e-07 -1.0937 6.75487 -0.128699 3.53286e-07 -25.0802 
-16.98 82.42 -12.941 45.1763 85.3172 64.4275 0 -0 0 -11.5138 -2.86424 -9.49036 27.5941 -8.28166 -5.42291e-05 36.9529 14.0864 27.0999 -180 84.7661 -180 4.75832 5.46841 0.227403 -25.1484 15.0515 -0.0001249 -50.1413 24.3466 5.1419 -1.65008e-06 -80.3876 1.95301e-06 11.476 1.95345 0.196302 16.1453 -3.39015 -4.60017 -4.99693 -5.62054 -2.52483 -0 -0 38.1038 6.56214e-05 16.6367 24.8302 7.15204 2.2256e-05 -81.3679 -5.54367 3.17661 -45.6292 -0 -0 33.9195 7.62727e-08 -0.232905 5.77179 -0.0234005 6.70475e-08 -23.603 
-15.893 82.311 -12.993 44.1168 84.8079 63.2476 0 -0 0 -11.9629 -2.93572 -9.33099 27.7431 -8.30745 -6.51457e-05 37.6699 13.7502 26.7433 -180 84.8943 -180 4.58374 5.45134 0.218304 -25.4757 15.1275 -9.85856e-05 -49.6032 23.2177 5.41113 -1.80107e-06 -79.5046 1.49796e-06 11.9202 1.93294 0.201794 16.4234 -3.28373 -4.56834 -5.6825 -5.95264 -3.49456 -0 -0 40.7153 5.42557e-05 17.0682 26.5924 7.82572 6.38848e-05 -79.9569 -5.68229 2.83745 -45.3619 -0 -0 35.4409 -5.58553e-08 0.664703 4.65478 0.0539001 -7.54012e-09 -22.7148 
-14.82 82.269 -13.035 42.3268 84.2368 61.329 0 -0 0 -12.3853 -2.89487 -9.16972 27.8921 -8.34763 -2.37126e-05 38.4997 13.328 26.3764 -180 85.1022 -180 4.31147 5.39409 0.203196 -25.788 15.1584 0.000178934 -49.1132 21.9863 5.67071 -0 -78.567 0 12.3418 1.89983 0.205403 16.6241 -3.18306 -4.52535 -6.31499 -6.12151 -4.55708 -0 -0 43.2804 3.62498e-05 17.072 28.4502 8.32324 -5.72969e-05 -77.7638 -5.82651 2.57051 -44.8823 -0 -0 36.5186 7.10105e-07 1.5467 3.43685 0.0927011 -8.87145e-07 -22.3706 
-13.757 82.29 -13.065 40.0036 83.6053 58.8639 0 -0 0 -12.7611 -2.75037 -9.01241 28.0445 -8.3971 6.75128e-05 39.4082 12.8265 26.0104 -180 85.3878 -180 3.95551 5.2985 0.183099 -26.0757 15.1435 -1.10545e-05 -48.6963 20.7062 5.90284 -1.24953e-06 -77.6312 1.55317e-06 12.7246 1.85745 0.20711 16.7498 -3.08637 -4.45809 -6.88072 -6.14514 -5.68235 -0 -0 45.7573 0.000151114 16.5693 30.2823 8.53249 5.71354e-06 -75.0102 -5.97694 2.41246 -44.2083 -0 -0 37.1854 -9.06989e-07 2.38914 2.17351 0.0906981 4.90406e-07 -22.488 
-12.695 82.366 -13.083 37.3723 82.9089 56.0693 0 -0 0 -13.0871 -2.52456 -8.86029 28.2067 -8.45657 -9.79628e-06 40.3545 12.2706 25.6574 -180 85.7221 -180 3.53273 5.16968 0.1595 -26.3215 15.0904 0.000149403 -48.371 19.4164 6.10117 -1.03177e-06 -76.7376 8.16881e-07 13.0529 1.80982 0.207095 16.8109 -2.98897 -4.35494 -7.38472 -6.05685 -6.83948 -0 -0 48.1091 -0.000125782 15.5039 31.9681 8.35512 -2.86204e-05 -72.0311 -6.13928 2.38041 -43.3545 -0 -0 37.4801 1.59368e-07 3.18295 0.935097 0.0519999 4.0107e-08 -22.9569 
-11.633 82.492 -13.088 34.6171 82.1596 53.131 0 -0 0 -13.3381 -2.24989 -8.71902 28.3779 -8.51955 -1.71549e-05 41.3055 11.671 25.3289 -180 86.0926 -180 3.07078 5.01442 0.134502 -26.523 15.0029 3.43929e-05 -48.1468 18.1731 6.25238 -9.79102e-07 -75.9326 7.64036e-07 13.3181 1.76244 0.205805 16.8085 -2.88496 -4.20288 -7.81249 -5.88409 -8.00312 -0 -0 50.307 6.75005e-05 13.8409 33.3951 7.72278 5.13141e-06 -69.181 -6.30568 2.48894 -42.3481 -0 -0 37.4548 3.98807e-08 3.91397 -0.207999 -0.0142002 -4.03523e-08 -23.6485 
-10.567 82.661 -13.079 31.8833 81.3741 50.1953 0 -0 0 -13.5014 -1.96779 -8.59351 28.5567 -8.58344 4.098e-05 42.2311 11.0441 25.0344 -180 86.5116 -180 2.59925 4.84054 0.109903 -26.6764 14.8876 3.737e-05 -48.0218 17.0117 6.35364 -1.32832e-06 -75.2576 1.02397e-06 13.5117 1.71965 0.203706 16.7513 -2.76767 -3.99203 -8.16131 -5.66398 -9.1559 -0 -0 52.3292 -4.2896e-06 11.5893 34.4599 6.6188 -1.87117e-05 -66.7119 -6.47243 2.73481 -41.2155 -0 -0 37.1629 1.10566e-06 4.57539 -1.18997 -0.0952001 -3.71895e-07 -24.4252 
-9.4986 82.866 -13.057 29.3202 80.5781 47.4201 0 -0 0 -13.5664 -1.72472 -8.48838 28.7428 -8.64668 -5.16376e-06 43.1087 10.4056 24.7837 -180 86.9422 -180 2.1483 4.65506 0.0872994 -26.7822 14.7544 -3.08902e-05 -47.9927 15.9609 6.40423 -0 -74.7361 0 13.6327 1.68495 0.201404 16.6433 -2.63097 -3.71588 -8.43061 -5.43818 -10.2869 -0 -0 54.1631 -7.60479e-05 8.81559 35.0669 5.09188 2.59813e-05 -64.7236 -6.63662 3.10262 -39.9857 -0 -0 36.6556 -2.72952e-06 5.16245 -1.95965 -0.176999 4.52682e-07 -25.1647 
-8.4313 83.1 -13.023 27.0019 79.7994 44.889 0 -0 0 -13.5237 -1.56709 -8.40691 28.9289 -8.70944 -2.87267e-06 43.923 9.76267 24.5847 -180 87.3965 -180 1.74627 4.46501 0.0680983 -26.8423 14.6125 -6.01082e-05 -48.0455 15.0321 6.41203 -0 -74.3878 0 13.6849 1.66027 0.199196 16.4884 -2.47015 -3.37247 -8.6205 -5.24976 -11.3918 -0 -0 55.7988 6.82721e-05 5.6411 35.1426 3.2541 2.09588e-05 -63.153 -6.79486 3.56679 -38.6886 -0 -0 35.9845 2.63591e-06 5.67111 -2.48518 -0.246698 3.72423e-07 -25.7789 
-7.3689 83.358 -12.979 24.9854 79.0598 42.6716 0 -0 0 -13.3722 -1.53664 -8.35053 29.1135 -8.77394 6.62493e-05 44.6643 9.12707 24.4357 -180 87.86 -180 1.41578 4.27517 0.0527987 -26.8589 14.4742 0.000164465 -48.1595 14.2221 6.39219 -9.47085e-07 -74.2179 1.25183e-06 13.6763 1.64596 0.197389 16.2874 -2.28281 -2.96607 -8.73355 -5.13956 -12.4694 -0 -0 57.229 -1.33843e-06 2.23999 34.6412 1.27371 6.33199e-06 -61.8314 -6.94472 4.09457 -37.3538 -0 -0 35.1891 3.71162e-06 6.09963 -2.75773 -0.294598 1.31473e-06 -26.2259 
-6.3169 83.635 -12.926 23.2691 78.3989 40.7785 0 -0 0 -13.1043 -1.66446 -8.32329 29.2858 -8.83961 -2.34956e-05 45.3343 8.49544 24.3335 -180 88.3048 -180 1.17557 4.09088 0.0419989 -26.8435 14.3382 3.79009e-05 -48.311 13.5335 6.35275 0 -74.2254 0 13.6164 1.64071 0.195895 16.0385 -2.06932 -2.50479 -8.76514 -5.13911 -13.5224 -0 -0 58.4425 1.05761e-05 -1.1843 33.5634 -0.654908 -1.3319e-06 -60.5544 -7.07901 4.65447 -36.0115 -0 -0 34.3093 -1.1177e-06 6.44396 -2.79147 -0.315097 -6.658e-07 -26.5082 
-5.2798 83.928 -12.865 21.8352 77.8369 39.199 0 -0 0 -12.7264 -1.96906 -8.3227 29.4427 -8.91056 -1.66854e-05 45.9331 7.87228 24.2664 -180 88.7463 -180 1.03409 3.91507 0.0352989 -26.8005 14.2122 -0.000161878 -48.4746 12.9412 6.31466 -0 -74.3987 0 13.5183 1.64155 0.194603 15.7411 -1.83269 -2.00334 -8.71778 -5.2717 -14.5546 -0 -0 59.4329 4.85812e-05 -4.42431 31.9632 -2.34545 -9.33004e-06 -59.1234 -7.19474 5.2136 -34.6841 -0 -0 33.3689 2.08399e-06 6.70391 -2.61738 -0.307505 8.30972e-07 -26.6578 
-4.2617 84.233 -12.796 20.6695 77.396 37.9255 0 -0 0 -12.2431 -2.45297 -8.34697 29.5784 -8.99004 -7.62198e-05 46.4674 7.2573 24.2214 -180 89.1851 -180 0.992987 3.75112 0.0324996 -26.7361 14.0905 -0.000127229 -48.6232 12.4304 6.29069 -0 -74.7066 0 13.3936 1.64485 0.193099 15.3923 -1.57862 -1.47932 -8.59228 -5.54647 -15.568 -0 -0 60.1977 -2.59491e-05 -7.3065 29.9437 -3.66196 9.40568e-06 -57.4423 -7.28824 5.74703 -33.3901 -0 -0 32.3864 -1.04412e-06 6.87949 -2.27982 -0.274999 1.08341e-06 -26.731 
-3.2642 84.547 -12.72 19.7423 77.073 36.9278 0 -0 0 -11.6694 -3.10383 -8.38834 29.6935 -9.08183 -4.21435e-05 46.941 6.64953 24.1809 -180 89.5262 -180 1.04492 3.60078 0.0328008 -26.6542 13.9826 -0.000172994 -48.7344 11.9599 6.30566 -1.43284e-06 -75.1198 1.86334e-06 13.2551 1.64666 0.191385 14.9898 -1.31461 -0.955507 -8.39515 -5.96461 -16.5648 -0 -0 60.7354 3.26639e-05 -9.7058 27.6366 -4.53616 9.62569e-07 -55.373 -7.35876 6.2358 -32.1346 -0 -0 31.3713 -2.77072e-06 6.97418 -1.82685 -0.223397 -8.31247e-07 -26.7893 
-2.2875 84.868 -12.637 19.0213 76.8687 36.1683 0 -0 0 -11.0188 -3.89512 -8.43892 29.7863 -9.18921 8.02173e-05 47.3624 6.04958 24.1289 -180 90 -180 1.17712 3.46628 0.0356003 -26.558 13.8836 -0.000123646 -48.7906 11.5047 6.37322 -9.59576e-07 -75.6066 7.4443e-07 13.1132 1.64405 0.189006 14.5314 -1.05021 -0.453791 -8.13317 -6.51448 -17.5444 -0 -0 61.0519 3.41552e-05 -11.5627 25.2008 -4.97864 2.16166e-05 -52.9642 -7.4068 6.67312 -30.9182 -0 -0 30.3315 1.06102e-06 6.99186 -1.30389 -0.159896 1.04805e-07 -26.8968 
